<svg xmlns="http://www.w3.org/2000/svg" fill="none" viewBox="0.5 0.5 33 25"><rect x=".75" y=".75" width="32.5" height="24.5" rx="3.25" fill="#fff"></rect><g clip-path="url(#a)"><path d="M27.56 20.77v.04h.07v-.03l-.02-.01h-.05zm.05-.03.04.01.02.02v.02l-.01.03a.06.06 0 0 1-.04.02l.05.06h-.04l-.05-.06h-.02v.06h-.03v-.16h.08zm-.02.22a.13.13 0 0 0 .06-.01.14.14 0 0 0 .07-.07.14.14 0 0 0 0-.11.14.14 0 0 0-.07-.08h-.11a.14.14 0 0 0-.05.03.14.14 0 0 0-.03.08.14.14 0 0 0 0 .08.13.13 0 0 0 .03.04.14.14 0 0 0 .05.03l.05.01zm0-.32a.18.18 0 0 1 .18.15.17.17 0 0 1-.05.16.18.18 0 0 1-.13.05l-.07-.01-.06-.04a.17.17 0 0 1-.03-.06.17.17 0 0 1 .1-.23l.07-.02zm-16.84-.63c0-.32.21-.58.55-.58.33 0 .54.25.54.58s-.21.57-.54.57c-.34 0-.55-.26-.55-.57zm1.47 0v-.9h-.4v.22a.69.69 0 0 0-.57-.27c-.5 0-.9.4-.9.95s.4.94.9.94c.26 0 .45-.1.57-.26v.21h.4V20zm13.26 0c0-.32.2-.58.55-.58.32 0 .54.25.54.58s-.22.57-.54.57c-.34 0-.55-.26-.55-.57zm1.46 0v-1.62h-.4v.94a.69.69 0 0 0-.56-.27c-.5 0-.9.4-.9.95s.4.94.9.94a.7.7 0 0 0 .57-.26v.21h.39V20zm-9.85-.6c.25 0 .41.16.45.44h-.93c.04-.26.2-.44.48-.44zm0-.35c-.52 0-.9.39-.9.95 0 .57.4.94.93.94.27 0 .52-.07.74-.25l-.2-.3a.86.86 0 0 1-.52.2c-.25 0-.48-.12-.54-.44h1.34l.01-.15c0-.56-.35-.95-.85-.95zm4.74.94c0-.31.21-.57.55-.57.33 0 .55.25.55.57s-.22.58-.55.58c-.34 0-.55-.26-.55-.58zm1.47 0v-.9h-.4v.23a.69.69 0 0 0-.57-.27c-.5 0-.9.4-.9.95s.4.94.9.94c.26 0 .45-.1.57-.26v.21h.4V20zm-3.68 0c0 .55.38.95.96.95.27 0 .45-.06.65-.22l-.19-.31a.8.8 0 0 1-.47.16c-.32 0-.55-.23-.55-.57s.23-.58.55-.58a.8.8 0 0 1 .47.16l.19-.31a.95.95 0 0 0-.65-.22c-.58 0-.96.4-.96.95zm5.06-.94c-.23 0-.38.1-.48.27v-.22h-.39v1.8h.4V19.9c0-.3.12-.47.38-.47a.64.64 0 0 1 .25.05l.12-.37a.84.84 0 0 0-.28-.05zm-10.53.19a1.35 1.35 0 0 0-.73-.19c-.46 0-.75.22-.75.58 0 .29.22.47.62.53l.18.02c.22.03.32.09.32.19 0 .14-.14.22-.4.22s-.48-.09-.6-.2l-.2.31c.22.16.5.24.79.24.52 0 .82-.25.82-.59 0-.31-.24-.48-.63-.53l-.18-.03c-.17-.02-.31-.06-.31-.18 0-.13.13-.2.34-.2a1.17 1.17 0 0 1 .57.15l.17-.32zm5.07-.19a.53.53 0 0 0-.48.27v-.22h-.38v1.79h.39v-1c0-.3.13-.47.38-.47a.64.64 0 0 1 .25.05l.12-.37a.84.84 0 0 0-.28-.05zm-3.35.05h-.64v-.55h-.4v.55h-.37v.35h.37v.82c0 .42.16.67.63.67a1 1 0 0 0 .49-.14l-.11-.34a.73.73 0 0 1-.35.1c-.2 0-.26-.12-.26-.3v-.8h.64v-.36zM10 20.9v-1.13c0-.43-.27-.71-.7-.72a.7.7 0 0 0-.64.32.66.66 0 0 0-.6-.32.6.6 0 0 0-.53.27v-.22h-.4v1.79h.4v-1c0-.3.18-.47.45-.47.26 0 .39.17.39.47v1h.4v-1c0-.3.18-.47.44-.47.27 0 .4.17.4.47v1h.4z" fill="#231f20"></path><path d="M19.6 10.75a6.72 6.72 0 0 0-2.6-5.3 6.73 6.73 0 0 0 0 10.61 6.72 6.72 0 0 0 2.6-5.3z" fill="#ff5f00"></path><path d="M17 16.06a6.73 6.73 0 0 1 0-10.62A6.8 6.8 0 0 0 12.8 4C9.04 4 6 7.02 6 10.75s3.04 6.76 6.8 6.76a6.8 6.8 0 0 0 4.2-1.45z" fill="#eb001b"></path><path d="M28 10.75A6.78 6.78 0 0 0 21.2 4 6.8 6.8 0 0 0 17 5.44a6.72 6.72 0 0 1 0 10.62 6.8 6.8 0 0 0 4.2 1.45c3.76 0 6.8-3.03 6.8-6.76z" fill="#f79e1b"></path></g><rect x=".75" y=".75" width="32.5" height="24.5" rx="3.25" stroke="#d9d9d9" stroke-width=".5"></rect><defs><clipPath id="a"><path fill="#fff" transform="translate(6 4)" d="M0 0h22v17H0z"></path></clipPath></defs></svg>
