<svg xmlns="http://www.w3.org/2000/svg" fill="none" viewBox="0.55 0.55 33 25"><rect x=".8" y=".8" width="32.5" height="24.5" rx="3.3" fill="#fff"></rect><g clip-path="url(#a)"><path d="M16.9 9.3 15 18h-2.2l1.8-8.7H17zm9 5.6 1.2-3.3.6 3.3H26zm2.4 3h2l-1.7-8.6h-1.9a1 1 0 0 0-.9.6l-3.2 8H25l.4-1.2h2.8l.2 1.3zm-5.6-2.8c0-2.3-3-2.4-3-3.4 0-.3.3-.7 1-.8a4 4 0 0 1 2 .4l.4-1.8c-.5-.2-1.2-.4-2-.4-2.1 0-3.6 1.2-3.7 2.9 0 1.2 1.1 2 2 2.4.8.4 1 .7 1 1 0 .6-.6.9-1.3.9-1 0-1.7-.3-2.2-.6l-.4 2c.5.2 1.5.4 2.4.4 2.3 0 3.8-1.2 3.8-3zm-9-5.8L10.4 18H8l-1.7-7c0-.4-.2-.6-.5-.7-.5-.3-1.4-.6-2.1-.8v-.3h3.7c.5 0 .9.4 1 1l1 5 2.2-6h2.2z" fill="#1a1f70"></path></g><rect x=".8" y=".8" width="32.5" height="24.5" rx="3.3" stroke="#d9d9d9" stroke-width=".5"></rect><defs><clipPath id="a"><path fill="#fff" transform="translate(3.7 9.1)" d="M0 0h26.7v9H0z"></path></clipPath></defs></svg>
