<svg xmlns="http://www.w3.org/2000/svg" fill="none" viewBox="0 0 32 32"><g fill-rule="evenodd"><path fill="#306FC5" d="M29.6 4h-28C.8 4 0 4.96 0 5.92v19.2C0 27.04.8 28 2.4 28h27.2c1.6 0 2.4-.96 2.4-2.88V6.88C32 4.96 31.2 4 29.6 4Z"/><path fill="#fff" d="m2.7 13.32-.62-1.5-.61 1.5H2.7Zm13.66-.6c-.13.08-.27.08-.45.08h-1.1v-.84h1.11c.16 0 .33 0 .43.07.12.05.2.17.2.33 0 .17-.08.3-.2.36.12-.06 0 0 0 0Zm7.84.6-.62-1.5-.62 1.5h1.24ZM9.58 14.96h-.93v-2.97l-1.32 2.97h-.8l-1.3-2.97v2.97H3.37l-.35-.84H1.15l-.36.84h-.98l1.62-3.79h1.35l1.54 3.59v-3.59H5.8l1.18 2.57 1.09-2.57h1.5v3.79Zm3.7 0h-3.03v-3.79h3.03v.79h-2.12v.68h2.07v.78h-2.07v.76h2.12v.78Zm4.26-2.77c0 .6-.4.92-.64 1.01.2.08.37.21.45.32.13.19.15.36.15.7v.74h-.91v-.48c0-.23.02-.55-.15-.74-.13-.13-.33-.16-.66-.16h-.97v1.38h-.9v-3.79h2.08c.46 0 .8.01 1.1.18.28.17.45.42.45.84 0-.42 0 0 0 0ZM19 14.96h-.92v-3.79h.92v3.79Zm10.72 0h-1.28l-1.72-2.84v2.84h-1.84l-.36-.84h-1.88l-.34.84h-1.06c-.44 0-1-.1-1.31-.42-.32-.32-.49-.76-.49-1.44 0-.57.1-1.08.5-1.49.28-.3.74-.44 1.37-.44h.87v.81h-.85c-.33 0-.52.05-.7.23-.16.16-.26.46-.26.86 0 .4.08.7.25.89.14.15.39.2.63.2h.4l1.28-2.99h1.36l1.53 3.59v-3.59h1.38l1.6 2.64v-2.64h.92v3.79ZM-.2 15.7h1.55l.35-.84h.78l.35.84h3.04v-.64l.27.65h1.58l.27-.66v.65h7.57v-1.38h.14c.1 0 .13.02.13.19v1.2h3.92v-.33c.31.17.8.32 1.45.32h1.64l.36-.84h.78l.34.84h3.18v-.8l.48.8h2.54v-5.28H28v.62l-.35-.62h-2.58v.62l-.32-.62h-3.5c-.58 0-1.09.08-1.5.3v-.3h-2.41v.3c-.26-.23-.62-.3-1.02-.3h-8.8l-.58 1.36-.6-1.36H3.55v.62l-.3-.62H.9l-1.1 2.51v2.77ZM32 18.5h-1.64c-.17 0-.28 0-.37.06-.1.06-.13.15-.13.27 0 .15.08.24.2.29.1.03.2.04.35.04l.49.01c.5.02.82.1 1.02.3l.09.1V18.5Zm0 2.5c-.21.31-.64.48-1.22.48h-1.75v-.82h1.74c.17 0 .3-.02.37-.09a.33.33 0 0 0 .1-.25.31.31 0 0 0-.1-.25c-.07-.06-.17-.08-.32-.08-.85-.03-1.91.02-1.91-1.18 0-.55.34-1.12 1.3-1.12H32v-.76h-1.68c-.5 0-.87.12-1.13.31v-.3h-2.48c-.4 0-.86.1-1.08.3v-.3H21.2v.3a2.35 2.35 0 0 0-1.22-.3h-2.92v.3c-.28-.27-.9-.3-1.27-.3h-3.27l-.75.8-.7-.8H6.2v5.28h4.79l.77-.82.72.82h2.96v-1.24h.29c.39 0 .85-.01 1.26-.19v1.43h2.43v-1.38h.12c.15 0 .17 0 .17.16v1.22h7.4c.46 0 .95-.12 1.22-.34v.34h2.35c.49 0 .96-.07 1.33-.24v-.99Zm-3.6-1.52c.17.18.27.41.27.8 0 .82-.51 1.2-1.43 1.2h-1.76v-.82h1.76c.17 0 .29-.02.37-.09a.34.34 0 0 0 .1-.25.33.33 0 0 0-.1-.25c-.08-.06-.17-.08-.33-.08-.85-.03-1.9.02-1.9-1.17 0-.56.34-1.13 1.29-1.13h1.81v.8h-1.66c-.16 0-.27.01-.36.07-.1.06-.14.15-.14.27 0 .15.09.24.2.29.1.03.2.04.35.04l.5.01c.48.01.82.1 1.02.3-.2-.2 0 0 0 0Zm-8.17-.24c-.13.08-.28.08-.45.08h-1.1v-.85h1.11c.16 0 .33 0 .44.07.11.06.18.18.18.34s-.07.3-.18.36c.11-.07 0 0 0 0Zm.54.48a.98.98 0 0 1 .45.31c.12.19.14.36.15.7v.75h-.91V21c0-.23.02-.56-.15-.74-.13-.14-.33-.17-.66-.17h-.97v1.39h-.91v-3.8h2.09c.46 0 .8.03 1.09.19.28.17.46.4.46.84 0 .6-.4.91-.64 1 .24-.09 0 0 0 0Zm1.15-2.03h3.02v.78h-2.12v.69h2.07v.77h-2.07v.76h2.12v.79h-3.02v-3.8Zm-6.11 1.75h-1.17v-.97h1.18c.32 0 .55.13.55.47 0 .32-.22.5-.56.5Zm-2.08 1.7-1.39-1.55 1.4-1.5v3.04Zm-3.59-.45H7.92v-.76H9.9v-.77h-2v-.69h2.28l.99 1.1-1.03 1.12Zm7.2-1.75c0 1.05-.78 1.27-1.57 1.27h-1.13v1.27h-1.76l-1.12-1.26-1.16 1.26H7.02v-3.8h3.64l1.11 1.25 1.15-1.24h2.9c.72 0 1.52.2 1.52 1.24 0-1.05 0 0 0 0Z"/></g></svg>