<svg width="23" height="16" viewBox="0 0 23 16" fill="none" xmlns="http://www.w3.org/2000/svg">
<rect x="0.25" y="0.25" width="22.5" height="15.5" rx="1.75" fill="#006FCF"/>
<rect x="0.25" y="0.25" width="22.5" height="15.5" rx="1.75" stroke="#D9D9D9" stroke-width="0.5"/>
<path fill-rule="evenodd" clip-rule="evenodd" d="M20.1559 2.53345L19.6439 3.92545L19.1214 2.53345H15.9959V3.86145L15.3879 2.53345H12.8708L10.2839 8.38945H12.3534V13.472H18.6254L19.4734 12.5174L20.2894 13.472H22.4974V11.7334L21.2919 10.5066L22.4974 9.29601V7.62657H21.4094V4.29345L21.2068 4.84801L20.1614 7.62657H19.1268L18.0868 4.84801L17.8734 4.28801L17.8788 4.84801V7.62657H16.7908H15.5374L15.2068 6.80545H13.1374L12.8068 7.62657H11.5694L13.4574 3.36001H14.9134L16.7908 7.62657V3.36001H18.5988L19.4254 5.52545L19.6494 6.11201L19.8679 5.52545L20.6894 3.36001H22.4974V2.53345H20.1559ZM13.2279 12.6454V8.39457H16.7908H18.2094L19.4894 9.77601L20.7748 8.39457H22.1668L20.1719 10.512L22.1668 12.6454H20.7534L19.4628 11.2586L18.1668 12.6454H16.7908H13.2279Z" fill="white"/>
<path d="M13.9588 4.80545L14.1719 4.27201L14.3854 4.80545L14.8279 5.88257H13.5159L13.9588 4.80545Z" fill="white"/>
<path d="M16.7908 11.7226V12.6454L18.7799 10.528L16.7908 8.39457V9.31745H14.3159V10.064H16.7428V10.9814H14.3159V11.7226H16.7908Z" fill="white"/>
</svg>
