<svg xmlns="http://www.w3.org/2000/svg" fill="none" viewBox="0 0 32 24"><path d="M0 3a3 3 0 0 1 3-3h26a3 3 0 0 1 3 3v18a3 3 0 0 1-3 3H3a3 3 0 0 1-3-3V3z" fill="url(#a)"/><path d="M0 3a3 3 0 0 1 3-3h26a3 3 0 0 1 3 3v18a3 3 0 0 1-3 3H3a3 3 0 0 1-3-3V3z" fill="url(#b)"/><path fill-rule="evenodd" d="M10.3 6C7 6.2 5 8.4 5 11.8c0 3.9 2.2 6.3 6 6.2a5 5 0 0 0 4.8-2.8c.4-.8.7-2 .7-2.7v-.1H11v-.8h5.5v-.2C16.3 8 13.8 5.8 10.3 6zm6.9 3v2.6H21l4.5-.1c2-.8 2-4 .1-5-.5-.2-.3-.2-4.6-.2h-3.8V9zm0 6v2.7H21l4.4-.2c2-.6 2.2-4.2.1-5l-4.6-.1h-3.7V15z" fill="#fff"/><defs><radialGradient id="b" cx="0" cy="0" r="1" gradientUnits="userSpaceOnUse" gradientTransform="matrix(10.39539 -19.7166 27.13576 14.30706 8.8 27.4)"><stop stop-color="#0ea74a"/><stop offset=".8" stop-opacity="0"/></radialGradient><linearGradient id="a" x1="13.6" y1="23.1" x2="33.6" y2="-.4" gradientUnits="userSpaceOnUse"><stop stop-color="#1eb3eb"/><stop offset="1" stop-color="#002153"/></linearGradient></defs></svg>