<svg width="96" height="97" fill="none" xmlns="http://www.w3.org/2000/svg"><path d="M76 20.204c0-1.554-1.248-3.073-2.786-3.073H3.841c-1.538 0-3.015 1.52-3.015 3.073v42.115c0 1.554 1.474 2.812 3.012 2.812h69.376c1.538 0 2.786-1.26 2.786-2.812V20.204z" fill="url(#a)"/><mask id="b" style="mask-type:luminance" maskUnits="userSpaceOnUse" x="0" y="17" width="76" height="49"><path d="M75.812 20.2c0-1.551-1.245-2.81-2.779-2.81h-69.2c-1.534 0-2.776 1.259-2.776 2.81v4.68l1.491 1.835V34.8L.934 36.636l.12 25.636c0 1.553 1.242 2.809 2.776 2.809h69.203c1.534 0 2.78-1.26 2.78-2.809V20.202z" fill="#fff"/></mask><g mask="url(#b)"><g opacity=".58"><path d="M39.066 15.884c-8.155 0-11.34 11.695-11.34 25.633 0 13.939 3.185 25.48 11.34 25.48 4.896 0 9.067-2.901 9.083-5.285 0-.521-.197-1.02-.629-1.456-2.32-2.266-3.225-4.535-3.235-6.533-.012-3.818 3.263-6.66 6.28-6.66 4.15 0 6.596 3.3 6.596 7.57 0 4.049-1.707 7.424-3.559 10.124a.608.608 0 0 0-.105.34c0 .208.123.383.308.383.114 0 .244-.06.386-.206L75.026 44.89c1.038-.901 1.703-1.951 1.703-3.447 0-1.497-.665-2.553-1.703-3.448L54.19 17.608c-.141-.14-.27-.203-.385-.203-.188 0-.308.178-.308.39 0 .109.031.23.105.342 1.852 2.697 3.559 6.072 3.559 10.115 0 4.27-2.447 7.574-6.597 7.574-3.016 0-6.29-2.846-6.279-6.664.013-1.995.919-4.267 3.235-6.53.432-.44.629-.935.629-1.459-.016-2.384-4.187-5.289-9.083-5.289z" fill="url(#c)"/><path d="M23.055 17.608c.132-.134.262-.187.37-.187.197 0 .335.177.33.392a.602.602 0 0 1-.186.396c-4.886 6.15-8.444 13.337-8.444 23.308S18.68 58.53 23.569 64.68a.616.616 0 0 1 .185.396c.006.215-.132.392-.33.392-.11 0-.24-.053-.37-.19L2.223 44.893c-1.038-.9-1.704-1.951-1.704-3.447s.662-2.553 1.704-3.448l20.833-20.39z" fill="url(#d)"/></g><path d="M32.236 41.592v1.802h-1.747v-5.891h2.828c1.356 0 2.08.966 2.08 2.094 0 1.129-.734 1.995-2.08 1.995h-1.081zm0-1.406h.9c.298 0 .514-.286.514-.573 0-.312-.216-.599-.515-.599h-.9v1.172zM34.996 43.394l2.252-5.891h1.546l2.311 5.89H39.25l-.373-.984H37.15l-.348.985h-1.805zm2.427-2.366h1.165l-.558-1.658-.607 1.658zM42.433 41.315c.117.539.456.826 1.032.826.4 0 .681-.134.681-.421 0-.143-.074-.327-.49-.461L43 41.006c-.283-.093-1.698-.47-1.713-1.724 0-1.134.949-1.866 2.221-1.866 1.097 0 1.796.545 2.13 1.53l-1.396.405c-.117-.327-.284-.589-.7-.589-.283 0-.548.118-.548.37 0 .17.117.322.474.447l.65.227c1.297.455 1.704 1.026 1.729 1.861 0 1.253-1.116 1.826-2.379 1.826-1.346 0-2.261-.657-2.437-1.842l1.405-.327-.003-.01zM47.615 41.315c.117.539.456.826 1.032.826.4 0 .681-.134.681-.421 0-.143-.074-.327-.49-.461l-.656-.253c-.283-.093-1.698-.47-1.713-1.724 0-1.134.949-1.866 2.221-1.866 1.097 0 1.797.545 2.13 1.53l-1.396.405c-.117-.327-.284-.589-.7-.589-.283 0-.548.118-.548.37 0 .17.117.322.474.447l.65.227c1.297.455 1.704 1.026 1.729 1.861 0 1.253-1.116 1.826-2.379 1.826-1.346 0-2.261-.657-2.437-1.842l1.405-.327-.003-.01zM30.304 44.803h.299v.402c.175-.306.462-.446.791-.446.604 0 .992.474.992 1.053 0 .58-.388 1.054-.992 1.054a.872.872 0 0 1-.791-.446v1.31h-.3v-2.927zm1.066.227a.753.753 0 0 0-.77.782c0 .471.345.783.77.783.453 0 .72-.35.72-.783 0-.433-.267-.782-.72-.782zM32.987 45.289c.077-.324.29-.53.589-.53.061 0 .117.012.163.031v.3a.411.411 0 0 0-.185-.041c-.268 0-.57.233-.57 1v.77h-.302v-2.017h.302v.487h.003zM35.656 46.514c-.253.27-.57.352-.854.352-.69 0-1.121-.47-1.121-1.044 0-.574.453-1.063 1.072-1.063.511 0 .992.324 1.001 1.05H33.98v.032c0 .433.32.757.822.757.24 0 .478-.078.681-.268l.173.18v.004zm-1.643-.942h1.43c-.093-.42-.404-.548-.68-.548a.755.755 0 0 0-.75.548zM37.442 45.675c0-.49-.25-.645-.505-.645-.222 0-.61.159-.616.81v.982h-.299v-2.016h.299v.424a.687.687 0 0 1 .668-.471c.213 0 .533.078.684.474a.722.722 0 0 1 .7-.474c.453 0 .788.246.788.916v1.147h-.302v-1.147c0-.49-.25-.645-.505-.645-.21 0-.597.137-.616.78v1.012h-.299v-1.147h.003zM39.75 43.899c.123 0 .222.096.222.227s-.096.225-.222.225c-.127 0-.216-.094-.216-.225 0-.13.093-.227.216-.227zm.15 2.923H39.6v-2.016h.302v2.016zM40.634 45.95c0 .495.256.645.511.645.222 0 .672-.153.681-.81v-.982h.302v2.016h-.302v-.43c-.108.324-.403.474-.702.474-.431 0-.792-.253-.792-.916v-1.148h.299v1.148l.003.003zM43.998 45.675c0-.49-.25-.645-.505-.645-.222 0-.61.159-.616.81v.982h-.302v-2.016h.302v.424a.687.687 0 0 1 .668-.471c.213 0 .533.078.684.474a.722.722 0 0 1 .7-.474c.452 0 .788.246.788.916v1.147h-.302v-1.147c0-.49-.25-.645-.505-.645-.21 0-.598.137-.616.78v1.012h-.302v-1.147h.006z" fill="#fff"/><path fill-rule="evenodd" clip-rule="evenodd" d="M6.552 32.528v7.867l-2.455-3.933 2.455-3.934zm-2.065 3.934 1.735 2.78v-5.56l-1.735 2.78z" fill="#fff"/><path d="M17.395 32.787c.672 0 1.217.555 1.217 1.28v4.876c0 .639-.545 1.194-1.217 1.194H10.27a1.228 1.228 0 0 1-1.217-1.238v-4.875c0-.682.546-1.237 1.217-1.237h7.126z" fill="#D9D9D9"/><path fill-rule="evenodd" clip-rule="evenodd" d="M10.272 33.08c-.51 0-.93.421-.93.944V38.9c0 .523.42.944.93.944h7.163c.51 0 .93-.42.93-.944v-4.875a.938.938 0 0 0-.93-.943h-7.163zm-1.516.944c0-.842.677-1.531 1.516-1.531h7.163c.84 0 1.517.69 1.517 1.531V38.9c0 .842-.677 1.531-1.517 1.531h-7.163c-.84 0-1.516-.689-1.516-1.531v-4.875z" fill="#000"/><path fill-rule="evenodd" clip-rule="evenodd" d="M9.001 35.495c0-.107.085-.203.202-.203h2.628c.1 0 .186.06.225.145l.001.002c.288.654.281 1.4-.02 2.05v.003a.254.254 0 0 1-.224.139h-2.61a.202.202 0 0 1-.202-.203v-.797a.116.116 0 0 1-.044-.17.116.116 0 0 1 .044-.169v-.797zm.223.913v.002l-.002.003a.268.268 0 0 1-.019.034.18.18 0 0 1-.01.014.137.137 0 0 1 .04.097v.841h2.58s.004 0 .009-.003a.023.023 0 0 0 .007-.007 2.26 2.26 0 0 0 .016-1.856l.106-.047-.105.049c-.003-.008-.01-.011-.015-.011H9.233v.841c0 .015-.003.03-.009.043zm-.132.104z" fill="#1D1D1C"/><path fill-rule="evenodd" clip-rule="evenodd" d="M8.934 37.652c0-.064.051-.116.115-.116h2.782c.1 0 .186.06.225.146l.001.002c.343.784.262 1.69-.213 2.396l-.096-.065.097.064a.244.244 0 0 1-.205.11h-1.365c-.706 0-1.274-.579-1.274-1.287v-1.015a.116.116 0 0 1-.046-.167.115.115 0 0 1-.021-.068zm.158.116-.006.015.006-.015zm.132 0a.133.133 0 0 1 .009.046v1.088a1.05 1.05 0 0 0 1.042 1.056h1.365l.006-.001a2.27 2.27 0 0 0 .2-2.18l.105-.047-.104.049c-.004-.008-.01-.01-.016-.01H9.224zM9.001 34.024c0-.711.572-1.288 1.274-1.288h1.365c.083 0 .159.043.204.111.475.71.559 1.614.216 2.396v.002a.248.248 0 0 1-.226.145H9.052a.116.116 0 0 1-.095-.181.116.116 0 0 1 .044-.17v-1.015zm.116 1.088.107.043v.002l-.001.001h2.611a.017.017 0 0 0 .015-.01 2.272 2.272 0 0 0-.197-2.172.017.017 0 0 0-.006-.007.011.011 0 0 0-.006 0h-1.365a1.05 1.05 0 0 0-1.042 1.055v1.088a.116.116 0 0 1-.009.043l-.107-.043z" fill="#1D1D1C"/><path fill-rule="evenodd" clip-rule="evenodd" d="M13.858 32.693a.115.115 0 0 0-.172.044h-1.66a.202.202 0 0 0-.203.203v.012l.001.002.001.007.003.02c0-.001 0 0 0 0 .002.008.008.037.025.064.122.21.21.44.263.677.003.016.01.031.02.044v.002l.002.002.005.006a.234.234 0 0 0 .048.041.14.14 0 0 0 .087.02 11.284 11.284 0 0 1 3.319.024.114.114 0 0 0 .043-.001h.002l.002-.001.007-.002a.208.208 0 0 0 .054-.024.138.138 0 0 0 .047-.053l.002-.005c.112-.256.268-.494.46-.692a.205.205 0 0 0 0-.287.116.116 0 0 0-.017-.015h-.002l-.002-.002-.007-.005a.35.35 0 0 0-.023-.013.21.21 0 0 0-.093-.025h-2.04a.116.116 0 0 0-.172-.043zm.056.267h-.001l-.002-.001-.003-.002-.008-.004a.196.196 0 0 1-.042-.028.136.136 0 0 1-.099.043h-1.683c.11.198.192.41.247.629a11.513 11.513 0 0 1 3.246.026c.11-.238.257-.461.435-.655h-2.047a.115.115 0 0 1-.043-.008zm-.103-.13zm2.257.144zM12.226 39.09a.115.115 0 0 1 .05-.003 11.29 11.29 0 0 0 3.175-.002c.034 0 .06.013.072.02a.184.184 0 0 1 .047.043l.005.005.002.003-.092.07.093-.069c.01.014.017.029.02.045.05.236.14.467.26.677a.192.192 0 0 1 .028.084V39.972l.002.012a.203.203 0 0 1-.203.203h-1.66a.116.116 0 0 1-.169.046.115.115 0 0 1-.172-.043h-1.662c-.029 0-.056-.01-.065-.013a.457.457 0 0 1-.017-.006l-.005-.002-.002-.001h-.001a.206.206 0 0 1-.084-.284v-.003c.124-.21.212-.439.265-.68l.113.025-.114-.022a.136.136 0 0 1 .042-.073.171.171 0 0 1 .06-.036l.007-.003.003-.001h.002zm.095.237a2.564 2.564 0 0 1-.25.631h1.686c.015 0 .03.003.043.009h.002l.003.002a.19.19 0 0 1 .047.03.136.136 0 0 1 .099-.043h1.684a2.608 2.608 0 0 1-.245-.63 11.52 11.52 0 0 1-3.07 0zm3.336.669zm-1.754.1z" fill="#1D1D1C"/><path fill-rule="evenodd" clip-rule="evenodd" d="M15.651 37.678a.248.248 0 0 1 .225-.145h2.782a.116.116 0 0 1 .094.184.116.116 0 0 1-.046.167V38.9c0 .712-.571 1.288-1.274 1.288h-1.365a.244.244 0 0 1-.204-.111 2.504 2.504 0 0 1-.213-2.395l.001-.002zm2.832.09v-.002l.002-.001h-2.609a.017.017 0 0 0-.015.01c-.31.708-.236 1.53.194 2.172l.001.001a.019.019 0 0 0 .006.006.01.01 0 0 0 .005.001h1.365a1.05 1.05 0 0 0 1.043-1.056v-1.088c0-.014.003-.029.008-.042z" fill="#1D1D1C"/><path fill-rule="evenodd" clip-rule="evenodd" d="M15.654 35.437a.248.248 0 0 1 .226-.145h2.628c.108 0 .201.088.201.203v.797a.116.116 0 0 1 .047.167.115.115 0 0 1-.043.172v.797a.202.202 0 0 1-.202.203H15.9a.245.245 0 0 1-.225-.142 2.504 2.504 0 0 1-.023-2.05l.001-.002zm2.835 1.079v-.001l.001-.002.002-.003a.225.225 0 0 1 .028-.046.136.136 0 0 1-.042-.099v-.841H15.88a.017.017 0 0 0-.015.01 2.272 2.272 0 0 0 .025 1.863.02.02 0 0 0 .011.002h2.58v-.84c0-.015.003-.03.008-.043zm.13-.105z" fill="#1D1D1C"/><path fill-rule="evenodd" clip-rule="evenodd" d="M16.52 32.738a.11.11 0 0 1 .018-.002h.897c.706 0 1.274.58 1.274 1.288v1.015a.116.116 0 0 1 .04.176.116.116 0 0 1-.097.178H15.87a.147.147 0 0 0-.135.09 2.413 2.413 0 0 0-.058 1.772c.07.2.07.42 0 .62-.126.35-.17.73-.124 1.101a.135.135 0 0 1-.016.084.167.167 0 0 1-.048.055l-.007.005-.002.002h-.001a.116.116 0 0 1-.05.02c-1.045.148-2.11.148-3.159 0l-.006-.001a.135.135 0 0 1-.074-.043.168.168 0 0 1-.035-.06l-.002-.008-.001-.002v-.002h-.001a.117.117 0 0 1-.004-.047 2.43 2.43 0 0 0-.123-1.104.936.936 0 0 1 0-.62 2.41 2.41 0 0 0 .006-1.606l-.001-.001a.947.947 0 0 1 0-.608v-.001a2.398 2.398 0 0 0 .117-1.102c0-.037.016-.063.024-.076a.184.184 0 0 1 .045-.047l.006-.005.002-.001.001-.001a.12.12 0 0 1 .05-.019 11.299 11.299 0 0 1 3.286.017.126.126 0 0 1 .058.028c.158-.408.421-.768.767-1.042a.198.198 0 0 1 .05-.03.347.347 0 0 1 .071-.02l.01-.002h.002l.002-.001zm.029.23a.276.276 0 0 0-.023.006 2.25 2.25 0 0 0-.796 1.287.116.116 0 0 1-.015.037l-.001.002-.002.003-.005.007a.251.251 0 0 1-.055.053.146.146 0 0 1-.078.023h-.056a.116.116 0 0 1-.066-.02v-.001l-.002-.001-.003-.002-.008-.007a.236.236 0 0 1-.025-.023.185.185 0 0 1-.031-.046.144.144 0 0 1-.011-.094c.012-.058.027-.116.043-.173a11.07 11.07 0 0 0-3.03-.013c.034.376-.011.754-.137 1.11a.715.715 0 0 0 0 .457c.2.57.196 1.193-.006 1.76a.703.703 0 0 0 0 .464c.129.362.176.746.143 1.127.973.13 1.96.13 2.93 0a2.621 2.621 0 0 1 .144-1.127.703.703 0 0 0 0-.464 2.646 2.646 0 0 1 .064-1.943v-.001a.379.379 0 0 1 .347-.228h2.617a.134.134 0 0 1-.01-.049v-1.088a1.05 1.05 0 0 0-1.042-1.056h-.886zm-.975.986z" fill="#1D1D1C"/><path d="M62.564 57.64c0-1.576.733-2.979 1.87-3.886a4.825 4.825 0 0 0-3.022-1.063c-2.702 0-4.89 2.216-4.89 4.947 0 2.73 2.191 4.946 4.89 4.946 1.143 0 2.19-.399 3.022-1.063a4.956 4.956 0 0 1-1.87-3.886" fill="#B11138"/><path d="M66.298 57.64c0-1.576-.733-2.979-1.87-3.886a4.953 4.953 0 0 0-1.867 3.887c0 1.58.733 2.98 1.867 3.887a4.956 4.956 0 0 0 1.87-3.887z" fill="#EC721D"/><path d="M67.453 52.691c-1.143 0-2.19.4-3.022 1.063a4.954 4.954 0 0 1 1.867 3.887c0 1.58-.734 2.98-1.867 3.887a4.825 4.825 0 0 0 3.022 1.063c2.702 0 4.892-2.217 4.892-4.947s-2.19-4.947-4.892-4.947" fill="#E5A200"/><path d="M9.64 26.547c.013.598.204 1.265.543 1.892a.903.903 0 0 0 .058.09c.068.09.194.119.28.069.105-.063.155-.187.109-.293-.074-.172-.158-.337-.232-.508-.234-.558-.304-1.147-.277-1.749a4.024 4.024 0 0 1 .428-1.577c.028-.053.053-.11.074-.165a.225.225 0 0 0-.092-.287c-.105-.06-.25-.028-.311.075-.231.39-.382.81-.484 1.25-.083.355-.102.72-.098 1.2" fill="#fff"/><path d="M10.63 26.263c0 .58.12 1.088.347 1.571.037.075.08.15.13.218.083.113.2.14.302.078.108-.068.145-.19.086-.314-.117-.256-.237-.509-.305-.783a2.974 2.974 0 0 1 .244-2.107c.024-.053.049-.106.07-.159.043-.121 0-.23-.101-.284-.117-.056-.244-.021-.305.088a3.49 3.49 0 0 0-.36.882c-.072.28-.109.564-.105.813M11.625 26.341c-.016.402.108.792.305 1.16.043.08.086.162.188.19.092.025.166-.003.228-.072.058-.065.086-.14.05-.227-.063-.147-.133-.29-.189-.44-.194-.542-.132-1.069.12-1.58.025-.053.05-.106.068-.16.04-.114.016-.183-.092-.261a.212.212 0 0 0-.262.019.642.642 0 0 0-.117.156c-.204.37-.308.77-.296 1.218M12.549 26.273c.006.302.068.558.216.785.037.06.089.115.144.159.074.06.167.053.24 0 .084-.062.124-.162.096-.246a.844.844 0 0 0-.08-.169.973.973 0 0 1-.006-.981c.021-.04.046-.078.068-.119.058-.112.024-.23-.077-.305-.099-.069-.204-.06-.29.037-.154.172-.234.38-.277.605-.019.09-.022.18-.031.24" fill="#fff"/></g><path d="M96 33.96c0-1.562-1.25-2.83-2.79-2.83H23.737c-1.54 0-2.91 1.268-2.91 2.83v42.274c0 1.562 1.366 2.897 2.907 2.897H93.21c1.54 0 2.79-1.268 2.79-2.827V33.96z" fill="url(#e)"/><mask id="f" style="mask-type:luminance" maskUnits="userSpaceOnUse" x="20" y="31" width="76" height="49"><path d="M95.876 33.96c0-1.562-1.25-2.83-2.79-2.83H23.613c-1.54 0-2.787 1.268-2.787 2.83v16.542l-.003 25.802c0 1.563 1.246 2.827 2.787 2.827h69.476c1.54 0 2.79-1.268 2.79-2.827V33.96z" fill="#fff"/></mask><g opacity=".32" mask="url(#f)"><path d="M58.957 29.772c-8.147 0-11.33 11.714-11.33 25.67 0 13.958 3.183 25.52 11.33 25.52 4.89 0 9.06-2.904 9.072-5.291 0-.521-.198-1.02-.628-1.46-2.317-2.27-3.22-4.538-3.232-6.543-.013-3.824 3.26-6.673 6.27-6.673 4.147 0 6.59 3.304 6.59 7.583 0 4.053-1.704 7.434-3.553 10.135a.614.614 0 0 0-.105.343c0 .21.123.385.306.385.114 0 .244-.06.386-.204L94.88 58.825c1.036-.9 1.7-1.955 1.7-3.451 0-1.497-.664-2.557-1.7-3.45L74.063 31.497c-.142-.141-.272-.204-.386-.204-.189 0-.306.179-.306.389 0 .11.03.232.105.345 1.85 2.701 3.554 6.083 3.554 10.13 0 4.275-2.444 7.585-6.592 7.585-3.012 0-6.285-2.852-6.27-6.676.013-1.998.916-4.272 3.233-6.54.43-.44.628-.938.628-1.46-.016-2.386-4.182-5.298-9.072-5.298v.003z" fill="url(#g)"/><path d="M42.963 31.498c.13-.132.26-.188.37-.188.199 0 .335.178.332.392a.6.6 0 0 1-.186.395c-4.88 6.158-8.435 13.358-8.435 23.343s3.551 17.037 8.435 23.195c.124.122.18.273.186.395.006.217-.133.392-.331.392-.112 0-.238-.053-.371-.188L22.149 58.822c-1.039-.9-1.7-1.955-1.7-3.451 0-1.497.661-2.557 1.7-3.451l20.814-20.422z" fill="url(#h)"/></g><path d="M52.276 55.546v1.813h-1.754V51.43h2.84c1.36 0 2.088.973 2.088 2.108 0 1.136-.736 2.008-2.088 2.008h-1.086zm0-1.415h.903c.3 0 .517-.288.517-.577 0-.314-.217-.602-.517-.602h-.903V54.13zM55.05 57.356l2.262-5.929h1.553l2.32 5.93h-1.863l-.374-.992h-1.735l-.35.991h-1.812zm2.438-2.378h1.17l-.56-1.668-.61 1.668zM62.514 55.264c.118.543.458.831 1.036.831.403 0 .684-.135.684-.423 0-.145-.074-.33-.492-.464l-.659-.255c-.284-.094-1.704-.473-1.72-1.734 0-1.142.953-1.88 2.23-1.88 1.102 0 1.804.55 2.138 1.54l-1.401.409c-.118-.33-.285-.593-.702-.593-.285 0-.55.119-.55.373 0 .17.117.323.476.449l.652.229c1.302.458 1.71 1.032 1.735 1.872 0 1.261-1.12 1.839-2.387 1.839-1.352 0-2.27-.662-2.447-1.854l1.41-.33-.003-.01zM67.716 55.264c.118.543.458.831 1.037.831.402 0 .683-.135.683-.423 0-.145-.074-.33-.492-.464l-.658-.255c-.285-.094-1.705-.473-1.72-1.734 0-1.142.953-1.88 2.23-1.88 1.101 0 1.803.55 2.137 1.54l-1.4.409c-.118-.33-.285-.593-.703-.593-.285 0-.55.119-.55.373 0 .17.117.323.476.449l.652.229c1.302.458 1.71 1.032 1.736 1.872 0 1.261-1.12 1.839-2.388 1.839-1.352 0-2.27-.662-2.447-1.854l1.41-.33-.003-.01z" fill="#fff"/><path fill-rule="evenodd" clip-rule="evenodd" d="M26.491 46.423v7.913l-2.463-3.956 2.463-3.957zm-2.074 3.957 1.744 2.8v-5.6l-1.744 2.8z" fill="#fff"/><path d="M37.377 46.684c.675 0 1.222.559 1.222 1.29v4.906c0 .643-.547 1.201-1.221 1.201h-7.155a1.235 1.235 0 0 1-1.221-1.245V47.93c0-.687.547-1.246 1.221-1.246h7.154z" fill="#D9D9D9"/><path fill-rule="evenodd" clip-rule="evenodd" d="M30.226 46.978a.944.944 0 0 0-.934.952v4.906c0 .528.422.952.934.952h7.192a.944.944 0 0 0 .934-.952V47.93a.944.944 0 0 0-.934-.952h-7.192zm-1.52.952c0-.846.678-1.54 1.52-1.54h7.192c.842 0 1.52.694 1.52 1.54v4.906c0 .846-.678 1.54-1.52 1.54h-7.192a1.531 1.531 0 0 1-1.52-1.54V47.93z" fill="#000"/><path fill-rule="evenodd" clip-rule="evenodd" d="M28.954 49.41c0-.107.085-.203.202-.203h2.639c.1 0 .186.06.225.145l.001.002a2.512 2.512 0 0 1-.02 2.062v.003a.255.255 0 0 1-.225.14h-2.62a.203.203 0 0 1-.202-.204v-.802a.116.116 0 0 1-.044-.17.116.116 0 0 1 .044-.17v-.803zm.223.918v.002l-.002.003c0 .003-.002.005-.004.009a.213.213 0 0 1-.026.04l.012.015a.137.137 0 0 1 .028.083v.847h2.591s.005 0 .01-.003a.026.026 0 0 0 .007-.007 2.28 2.28 0 0 0 .017-1.87l.105-.046-.105.048c-.003-.008-.01-.01-.015-.01h-2.61v.846c0 .015-.002.03-.008.043zm-.132.105z" fill="#1D1D1C"/><path fill-rule="evenodd" clip-rule="evenodd" d="M28.886 51.578c0-.064.052-.116.115-.116h2.793c.1 0 .186.06.226.146l.001.002c.344.789.263 1.7-.214 2.41l-.096-.064.097.064a.245.245 0 0 1-.205.111h-1.37a1.288 1.288 0 0 1-1.28-1.295v-1.022a.116.116 0 0 1-.045-.168.115.115 0 0 1-.022-.068zm.159.116-.007.016.007-.016zm.131 0c.006.013.01.03.01.047v1.095c0 .587.468 1.064 1.046 1.064h1.37a.01.01 0 0 0 .006-.002 2.291 2.291 0 0 0 .201-2.195l.106-.047-.105.049c-.004-.008-.01-.011-.016-.011h-2.617zM28.954 47.93c0-.716.573-1.296 1.279-1.296h1.37c.083 0 .16.043.205.112.476.713.56 1.623.216 2.41v.002a.249.249 0 0 1-.226.145h-2.793a.116.116 0 0 1-.095-.181.116.116 0 0 1 .044-.17V47.93zm.223 1.137v.002l-.002.003h2.623c.005 0 .012-.003.015-.01a2.293 2.293 0 0 0-.198-2.188.02.02 0 0 0-.006-.007.012.012 0 0 0-.006-.001h-1.37c-.576 0-1.048.474-1.048 1.064v1.095c0 .014-.002.029-.008.042z" fill="#1D1D1C"/><path fill-rule="evenodd" clip-rule="evenodd" d="M33.826 46.59a.115.115 0 0 0-.172.044h-1.668a.203.203 0 0 0-.202.204v.015l.001.006a.318.318 0 0 0 .004.02.192.192 0 0 0 .024.064c.123.211.211.443.264.682.004.016.01.031.02.044l.001.002.002.002.005.006.017.018a.187.187 0 0 0 .03.024.139.139 0 0 0 .088.02c1.106-.156 2.23-.15 3.331.024.015.002.03.002.044-.002h.004l.007-.002a.24.24 0 0 0 .054-.025.138.138 0 0 0 .047-.053l.002-.005c.113-.258.269-.497.463-.696a.206.206 0 0 0 0-.288.111.111 0 0 0-.018-.015h-.002l-.002-.002-.007-.005a.327.327 0 0 0-.023-.013.211.211 0 0 0-.093-.025H34a.116.116 0 0 0-.173-.044zm.056.267h-.002l-.003-.002a.204.204 0 0 1-.05-.032.136.136 0 0 1-.1.043h-1.691c.11.2.194.414.25.634a11.53 11.53 0 0 1 3.258.026c.112-.24.259-.465.439-.66h-2.058a.116.116 0 0 1-.043-.008zm-.103-.13zm2.266.145zM32.191 53.03a.115.115 0 0 1 .05-.004 11.311 11.311 0 0 0 3.188-.002.14.14 0 0 1 .072.02.185.185 0 0 1 .047.043l.005.006.002.002-.092.07.093-.069c.01.014.017.03.02.046.05.237.14.469.261.681.017.027.022.055.024.063a.272.272 0 0 1 .004.02V53.917l.002.012a.203.203 0 0 1-.203.203h-1.668a.116.116 0 0 1-.168.047.116.116 0 0 1-.173-.043h-1.669a.204.204 0 0 1-.082-.02l-.006-.002h-.001l-.001-.001a.207.207 0 0 1-.084-.285v-.002c.124-.212.213-.442.266-.684l.113.024-.114-.022a.136.136 0 0 1 .042-.073.166.166 0 0 1 .06-.036l.007-.003.003-.001h.002zm.095.236c-.056.223-.14.437-.251.637h1.693c.015 0 .03.003.043.008h.001l.002.001.003.002.008.003a.204.204 0 0 1 .039.026.136.136 0 0 1 .1-.043h1.69a2.628 2.628 0 0 1-.247-.634 11.54 11.54 0 0 1-3.081 0zm3.35.674zm-1.762.1z" fill="#1D1D1C"/><path fill-rule="evenodd" clip-rule="evenodd" d="M35.63 51.608a.249.249 0 0 1 .226-.146h2.793a.116.116 0 0 1 .094.184.116.116 0 0 1-.046.168v1.022c0 .715-.574 1.295-1.279 1.295h-1.37a.245.245 0 0 1-.205-.111 2.524 2.524 0 0 1-.214-2.41l.001-.002zm2.843.09.001-.002.002-.002h-2.62a.017.017 0 0 0-.015.01 2.292 2.292 0 0 0 .195 2.188.017.017 0 0 0 .006.006.01.01 0 0 0 .006.002h1.37c.575 0 1.047-.474 1.047-1.064v-1.095c0-.014.003-.029.008-.042z" fill="#1D1D1C"/><path fill-rule="evenodd" clip-rule="evenodd" d="M35.633 49.352a.249.249 0 0 1 .225-.145h2.639c.109 0 .202.088.202.203v.803a.116.116 0 0 1 .046.167.115.115 0 0 1-.043.173v.802a.203.203 0 0 1-.202.204h-2.62a.246.246 0 0 1-.226-.143 2.524 2.524 0 0 1-.022-2.061v-.003zm2.846 1.085v-.002l.002-.003a.193.193 0 0 1 .03-.048.137.137 0 0 1-.043-.1v-.846h-2.61a.017.017 0 0 0-.015.01 2.292 2.292 0 0 0 .026 1.877.02.02 0 0 0 .011.002h2.59v-.847c0-.015.004-.03.009-.043zm.129-.104z" fill="#1D1D1C"/><path fill-rule="evenodd" clip-rule="evenodd" d="M36.502 46.633a.11.11 0 0 1 .019-.002h.9c.709 0 1.278.584 1.278 1.295v1.023a.116.116 0 0 1 .04.175c.012.019.02.04.02.064a.116.116 0 0 1-.117.115H35.85a.148.148 0 0 0-.135.091 2.436 2.436 0 0 0-.059 1.784c.07.201.071.423 0 .624a2.407 2.407 0 0 0-.124 1.108.135.135 0 0 1-.016.085.166.166 0 0 1-.048.055l-.006.005-.003.001v.001h-.002a.117.117 0 0 1-.048.02c-1.05.148-2.119.148-3.172 0l-.007-.002a.134.134 0 0 1-.073-.043.168.168 0 0 1-.035-.06l-.003-.008v-.002l-.001-.001v-.001a.115.115 0 0 1-.004-.047 2.452 2.452 0 0 0-.124-1.11.943.943 0 0 1 0-.624 2.432 2.432 0 0 0 .005-1.617v-.002a.955.955 0 0 1 0-.61v-.002a2.42 2.42 0 0 0 .118-1.11c0-.036.015-.063.023-.075a.19.19 0 0 1 .045-.047l.007-.005.002-.002a.12.12 0 0 1 .05-.02 11.316 11.316 0 0 1 3.3.017.127.127 0 0 1 .058.03c.159-.412.423-.774.77-1.05a.199.199 0 0 1 .05-.03.342.342 0 0 1 .071-.02l.01-.003h.004zm.03.23a.192.192 0 0 0-.024.006c-.407.325-.688.78-.8 1.295a.117.117 0 0 1-.014.038l-.002.001-.001.003-.006.008a.234.234 0 0 1-.055.053.146.146 0 0 1-.078.023h-.055a.116.116 0 0 1-.067-.02v-.001l-.002-.001-.002-.002a.233.233 0 0 1-.065-.077.145.145 0 0 1-.011-.093c.012-.06.027-.118.044-.176a11.078 11.078 0 0 0-3.043-.012c.034.378-.011.759-.138 1.117a.722.722 0 0 0 0 .46c.2.575.197 1.2-.007 1.771a.71.71 0 0 0 0 .468c.13.365.178.751.145 1.134.977.13 1.967.13 2.941 0a2.643 2.643 0 0 1 .145-1.134.71.71 0 0 0 0-.468 2.668 2.668 0 0 1 .065-1.955.38.38 0 0 1 .347-.23h2.629a.134.134 0 0 1-.01-.05v-1.095c0-.586-.47-1.063-1.047-1.063h-.89zm-.979.993z" fill="#1D1D1C"/><path d="M82.725 71.696c0-1.587.736-2.999 1.878-3.912a4.837 4.837 0 0 0-3.035-1.07c-2.712 0-4.908 2.23-4.908 4.979 0 2.748 2.199 4.978 4.908 4.978 1.148 0 2.2-.401 3.035-1.07a4.993 4.993 0 0 1-1.878-3.911" fill="#B11138"/><path d="M86.478 71.696a4.998 4.998 0 0 0-1.878-3.912 4.99 4.99 0 0 0-1.874 3.912 5 5 0 0 0 1.874 3.912 4.993 4.993 0 0 0 1.878-3.912z" fill="#EC721D"/><path d="M87.637 66.718c-1.148 0-2.2.401-3.034 1.07a4.99 4.99 0 0 1 1.874 3.911 5 5 0 0 1-1.874 3.912 4.837 4.837 0 0 0 3.034 1.07c2.713 0 4.912-2.23 4.912-4.979 0-2.748-2.2-4.978-4.912-4.978" fill="#E5A200"/><path d="M29.286 40.4c.012.603.204 1.274.544 1.905.019.031.037.063.059.09.068.092.195.12.281.07.105-.063.155-.188.108-.295-.074-.173-.157-.339-.231-.511-.236-.562-.307-1.155-.279-1.76a4.055 4.055 0 0 1 .43-1.588c.028-.053.053-.11.074-.166a.227.227 0 0 0-.092-.289c-.106-.06-.251-.028-.313.076a4.38 4.38 0 0 0-.486 1.258c-.083.357-.102.724-.099 1.208" fill="#fff"/><path d="M30.278 40.115c0 .584.12 1.095.35 1.581.037.076.08.15.13.22.083.113.2.141.303.078.108-.069.145-.191.087-.317-.118-.257-.239-.51-.307-.787a3 3 0 0 1 .245-2.12c.024-.054.05-.107.07-.16.044-.123 0-.233-.101-.286-.118-.057-.245-.022-.306.088-.158.279-.285.574-.362.888a3.268 3.268 0 0 0-.106.818M31.278 40.194c-.016.404.108.796.306 1.167.043.081.087.163.189.191.092.025.167-.003.228-.072.06-.066.087-.141.05-.23-.062-.147-.133-.29-.189-.441-.195-.546-.133-1.076.12-1.591.026-.053.05-.107.069-.16.04-.116.015-.185-.093-.264a.212.212 0 0 0-.263.02.645.645 0 0 0-.117.156c-.204.373-.31.775-.297 1.227M32.203 40.128c.006.304.068.561.216.79.037.06.09.116.146.16.074.06.167.054.24 0 .084-.063.124-.163.097-.248a.851.851 0 0 0-.08-.169.982.982 0 0 1-.007-.988c.022-.04.047-.079.068-.12.059-.112.025-.231-.077-.307-.1-.069-.204-.06-.291.038a1.233 1.233 0 0 0-.278.608c-.019.091-.022.182-.031.242" fill="#fff"/><defs><radialGradient id="a" cx="0" cy="0" r="1" gradientUnits="userSpaceOnUse" gradientTransform="matrix(0 55.348 -54.7888 0 42.103 41.77)"><stop stop-color="#F3D590"/><stop offset=".24" stop-color="#EDCF8A"/><stop offset=".56" stop-color="#DDBF79"/><stop offset=".92" stop-color="#C3A65E"/><stop offset="1" stop-color="#BC9F57"/></radialGradient><radialGradient id="c" cx="0" cy="0" r="1" gradientUnits="userSpaceOnUse" gradientTransform="matrix(22.1886 0 0 22.4478 42.378 40.454)"><stop stop-color="#F1D185"/><stop offset=".37" stop-color="#ECCC80"/><stop offset=".79" stop-color="#E0C072"/><stop offset="1" stop-color="#D8B869"/></radialGradient><radialGradient id="d" cx="0" cy="0" r="1" gradientUnits="userSpaceOnUse" gradientTransform="matrix(25.134 0 0 25.4275 41.463 38.41)"><stop stop-color="#F1D185"/><stop offset=".37" stop-color="#ECCC80"/><stop offset=".79" stop-color="#E0C072"/><stop offset="1" stop-color="#D8B869"/></radialGradient><radialGradient id="e" cx="0" cy="0" r="1" gradientUnits="userSpaceOnUse" gradientTransform="matrix(0 55.6481 -54.8679 0 62.05 55.647)"><stop stop-color="#453B48"/><stop offset=".21" stop-color="#3F3642"/><stop offset=".48" stop-color="#2F2831"/><stop offset=".8" stop-color="#141115"/><stop offset="1"/></radialGradient><radialGradient id="g" cx="0" cy="0" r="1" gradientUnits="userSpaceOnUse" gradientTransform="matrix(25.1064 0 0 25.4634 61.35 52.33)"><stop stop-color="#453B48"/><stop offset=".21" stop-color="#3F3642"/><stop offset=".48" stop-color="#2F2831"/><stop offset=".8" stop-color="#141115"/><stop offset="1"/></radialGradient><radialGradient id="h" cx="0" cy="0" r="1" gradientUnits="userSpaceOnUse" gradientTransform="matrix(25.1064 0 0 25.4634 61.351 52.33)"><stop stop-color="#453B48"/><stop offset=".21" stop-color="#3F3642"/><stop offset=".48" stop-color="#2F2831"/><stop offset=".8" stop-color="#141115"/><stop offset="1"/></radialGradient></defs></svg>