<svg xmlns="http://www.w3.org/2000/svg" fill="none" viewBox="0 0 34 26"><rect x=".83" y=".75" width="32.5" height="24.5" rx="3.25" fill="#fff"/><path d="M20.75 18.05h-1.58a.22.22 0 0 0-.21.18l-.64 4.09c-.01.08.05.15.13.15h.8c.08 0 .15-.06.16-.13l.18-1.16a.22.22 0 0 1 .22-.19h.5c1.03 0 1.63-.5 1.79-1.5.07-.45 0-.8-.2-1.03-.23-.27-.62-.41-1.15-.41zm.18 1.49c-.09.57-.52.57-.94.57h-.23l.16-1.07a.13.13 0 0 1 .13-.1h.11c.29 0 .56 0 .7.15.08.1.1.25.07.45z" fill="#009ade"/><path d="M9.52 18.05H7.94a.22.22 0 0 0-.22.18l-.63 4.09c-.02.08.05.15.13.15h.75a.22.22 0 0 0 .21-.19l.18-1.1a.22.22 0 0 1 .21-.18h.5c1.04 0 1.64-.51 1.8-1.52.06-.44 0-.78-.2-1.02-.23-.27-.63-.41-1.16-.41zm.18 1.49c-.09.57-.52.57-.94.57h-.24l.17-1.07a.13.13 0 0 1 .13-.1h.1c.3 0 .56 0 .7.15.08.1.1.25.08.45zm4.52-.02h-.75a.13.13 0 0 0-.13.11l-.03.22-.06-.08c-.16-.24-.53-.32-.89-.32-.83 0-1.54.64-1.68 1.53-.07.45.03.88.28 1.17.23.28.56.4.95.4.67 0 1.04-.45 1.04-.45l-.03.22c-.01.08.05.15.13.15h.68a.22.22 0 0 0 .21-.19l.41-2.6a.13.13 0 0 0-.13-.16zM13.17 21a.84.84 0 0 1-.85.73c-.22 0-.4-.07-.5-.2s-.16-.33-.12-.54a.85.85 0 0 1 .84-.73c.22 0 .39.07.5.2s.17.33.13.54z" fill="#002f87"/><path d="M25.46 19.52h-.76a.13.13 0 0 0-.13.11l-.03.22-.05-.08c-.17-.24-.53-.32-.9-.32-.83 0-1.54.64-1.68 1.53-.07.45.03.88.28 1.17.23.28.56.4.95.4.68 0 1.05-.45 1.05-.45l-.04.22c0 .08.05.15.13.15h.68a.22.22 0 0 0 .22-.18l.4-2.61a.13.13 0 0 0-.12-.16zM24.4 21a.84.84 0 0 1-.86.73c-.21 0-.39-.07-.5-.2s-.16-.33-.12-.54a.85.85 0 0 1 .84-.73c.22 0 .4.07.5.2s.17.33.14.55z" fill="#009ade"/><path d="M18.24 19.52h-.76a.22.22 0 0 0-.18.1l-1.05 1.55-.44-1.5a.22.22 0 0 0-.2-.15h-.75a.13.13 0 0 0-.13.18l.84 2.47-.79 1.12c-.06.09 0 .21.1.21h.77c.07 0 .13-.04.18-.1l2.52-3.67c.06-.09 0-.2-.11-.2z" fill="#002f87"/><path d="m26.35 18.16-.65 4.16c-.01.08.05.15.13.15h.65a.22.22 0 0 0 .22-.19l.63-4.08a.13.13 0 0 0-.13-.15h-.72a.13.13 0 0 0-.13.11zM22.12 6.61c.16-1.03 0-1.73-.55-2.36-.6-.7-1.7-1-3.1-1h-4.06a.58.58 0 0 0-.57.5l-1.7 10.83a.35.35 0 0 0 .35.4h2.5l-.17 1.12a.3.3 0 0 0 .3.35h2.12a.51.51 0 0 0 .5-.43l.02-.11.4-2.55.02-.14a.51.51 0 0 1 .5-.44H19c2.05 0 3.65-.84 4.12-3.27.2-1.01.1-1.86-.42-2.46a2 2 0 0 0-.58-.45" fill="#009ade"/><path d="M22.12 6.6c.16-1.02 0-1.72-.55-2.35-.6-.7-1.7-1-3.1-1h-4.06a.58.58 0 0 0-.57.5l-1.7 10.83c-.03.22.13.4.35.4h2.5l.64-4.03-.02.13a.58.58 0 0 1 .57-.5h1.19c2.34 0 4.17-.96 4.7-3.74l.05-.24" fill="#002169"/><path d="M16.3 6.62a.52.52 0 0 1 .29-.39.5.5 0 0 1 .22-.05h3.18a6.56 6.56 0 0 1 1.05.08l.27.05.25.07.12.04c.16.05.3.11.44.19.16-1.03 0-1.73-.55-2.36-.6-.7-1.7-1-3.1-1h-4.06a.58.58 0 0 0-.57.5l-1.7 10.83c-.03.22.13.4.35.4h2.5l.64-4.03.67-4.33z" fill="#002f87"/><rect x=".83" y=".75" width="32.5" height="24.5" rx="3.25" stroke="#d9d9d9" stroke-width=".5"/></svg>